<?xml version="1.0" encoding="utf-8"?>
<!-- Generator: Adobe Illustrator 24.0.2, SVG Export Plug-In . SVG Version: 6.00 Build 0)  -->
<svg version="1.1" id="Capa_1" xmlns="http://www.w3.org/2000/svg" xmlns:xlink="http://www.w3.org/1999/xlink" x="0px" y="0px"
	 viewBox="0 0 200 200" style="enable-background:new 0 0 200 200;" xml:space="preserve">
<style type="text/css">
	.st0{fill:#991B1B;}
	.st1{fill:#FFFFFF;}
</style>
<path class="st0" d="M187,197.3H13c-4.2,0-7.6-3.4-7.6-7.6V10.3c0-4.2,3.4-7.6,7.6-7.6H187c4.2,0,7.6,3.4,7.6,7.6v179.4
	C194.6,193.9,191.1,197.3,187,197.3z"/>
<circle class="st1" cx="172.1" cy="27.4" r="15.3"/>
<g>
	<polygon class="st1" points="102.9,113 102.9,58.1 42.1,113 	"/>
	<path class="st1" d="M102.4,22.3c-2.3-0.2-4.5-0.3-6.9-0.3c-45.8,0-82.9,37.1-82.9,82.9c0,0.3,0,0.6,0,0.9L102.4,22.3z"/>
	<path class="st1" d="M134.9,113h43.2c0.3-2.7,0.4-5.4,0.4-8.1c0-31.6-17.6-59-43.6-73V113z"/>
	<path class="st1" d="M19,136.9c12.5,29.9,42.1,51,76.5,51c2.5,0,4.9-0.1,7.3-0.3v-50.6H19z"/>
	<path class="st1" d="M134.9,136.9v41c16.6-9,29.8-23.5,37.2-41H134.9z"/>
</g>
</svg>
