<?xml version="1.0" encoding="utf-8"?>
<!-- Generator: Adobe Illustrator 24.0.2, SVG Export Plug-In . SVG Version: 6.00 Build 0)  -->
<svg version="1.1" id="Capa_1" xmlns="http://www.w3.org/2000/svg" xmlns:xlink="http://www.w3.org/1999/xlink" x="0px" y="0px"
	 viewBox="0 0 500 200" style="enable-background:new 0 0 500 200;" xml:space="preserve">
<style type="text/css">
	.st0{fill:#FFFFFF;}
</style>
<g>
	<g>
		<g>
			<path class="st0" d="M65.4,12.1V85H55.3V12.1H65.4z"/>
			<path class="st0" d="M96.6,21.4c-1.3,0-2.5,0.2-3.7,0.6c-1.2,0.4-2.2,1-3,1.8c-0.9,0.8-1.6,1.7-2.1,2.8C87.3,27.8,87,29,87,30.3
				c0,2.2,0.7,4,2.2,5.6c1.5,1.6,3.3,3,5.6,4.4c2.3,1.4,4.7,2.7,7.3,4.1c2.6,1.4,5,2.9,7.3,4.7c2.3,1.8,4.1,3.8,5.6,6.1
				c1.5,2.3,2.2,5.1,2.2,8.3c0,3.5-0.6,6.5-1.7,9.2c-1.2,2.7-2.8,4.9-4.8,6.7c-2.1,1.8-4.5,3.1-7.3,4.1s-5.9,1.4-9.2,1.4
				c-4.1,0-8.1-0.9-11.9-2.6c-3.9-1.8-6.9-4.5-9-8.2c1.4-0.9,2.7-1.9,4-2.9c1.3-1,2.6-2,3.9-3c0.6,1.2,1.3,2.3,2.3,3.1
				c1,0.9,2.1,1.6,3.3,2.1c1.2,0.5,2.5,0.9,3.8,1.2c1.3,0.3,2.6,0.4,3.9,0.4c3.2,0,6-0.8,8.2-2.5c2.2-1.7,3.3-4.3,3.3-7.7
				c0-2.2-0.8-4.2-2.3-5.8c-1.5-1.7-3.4-3.2-5.6-4.6c-2.2-1.4-4.7-2.9-7.3-4.3c-2.7-1.4-5.1-3-7.3-4.8c-2.2-1.8-4.1-3.8-5.6-6
				c-1.5-2.3-2.3-5-2.3-8.2c0-3.1,0.6-5.8,1.7-8.2c1.1-2.4,2.6-4.4,4.5-6c1.9-1.6,4.2-2.8,6.7-3.6c2.6-0.8,5.4-1.2,8.3-1.2
				c3.2,0,6.5,0.7,9.9,2c3.4,1.4,6.2,3.3,8.3,5.8c-1,1.3-2.1,2.5-3.2,3.8c-1.2,1.2-2.3,2.4-3.3,3.7c-1.4-1.7-3.2-3.1-5.3-4.2
				C101.1,21.9,98.9,21.4,96.6,21.4z"/>
			<path class="st0" d="M160.6,12.1c5,0,9.8,1,14.2,2.9c4.4,1.9,8.3,4.5,11.6,7.8c3.3,3.3,5.9,7.2,7.8,11.6
				c1.9,4.4,2.9,9.2,2.9,14.2c0,5-1,9.8-2.9,14.2c-1.9,4.4-4.5,8.3-7.8,11.6c-3.3,3.3-7.2,5.9-11.6,7.8c-4.4,1.9-9.2,2.9-14.2,2.9
				c-5,0-9.8-1-14.2-2.9c-4.4-1.9-8.3-4.5-11.6-7.8c-3.3-3.3-5.9-7.1-7.8-11.6c-1.9-4.4-2.9-9.2-2.9-14.2c0-5,1-9.8,2.9-14.2
				c1.9-4.4,4.5-8.3,7.8-11.6c3.3-3.3,7.2-5.9,11.6-7.8C150.9,13.1,155.6,12.1,160.6,12.1z M187,48.6c0-3.7-0.7-7.1-2.1-10.3
				c-1.4-3.2-3.2-6-5.6-8.4s-5.2-4.3-8.4-5.7c-3.2-1.4-6.6-2.1-10.3-2.1c-3.7,0-7.1,0.7-10.3,2.1c-3.2,1.4-6,3.3-8.4,5.7
				c-2.4,2.4-4.2,5.2-5.6,8.4c-1.4,3.2-2.1,6.6-2.1,10.3c0,3.7,0.7,7.1,2.1,10.3c1.4,3.2,3.2,6,5.6,8.4c2.4,2.4,5.2,4.2,8.4,5.6
				c3.2,1.4,6.6,2.1,10.3,2.1c3.7,0,7.1-0.7,10.3-2.1c3.2-1.4,6-3.2,8.4-5.6c2.4-2.4,4.2-5.2,5.6-8.4C186.3,55.7,187,52.3,187,48.6z
				"/>
		</g>
		<g>
			<path class="st0" d="M65.4,101.5v72.9H55.3v-72.9H65.4z"/>
			<path class="st0" d="M119.4,152.8c0,3.7,0,7.3-0.1,10.8c0,3.5-0.1,7.1-0.1,10.8h-10.4v-21.7c0-1.9-0.3-3.7-1-5.3
				c-0.6-1.7-1.6-3.2-2.7-4.4c-1.2-1.3-2.6-2.3-4.1-3c-1.6-0.8-3.3-1.1-5.3-1.1c-3,0-5.6,1-7.6,2.9c-2.1,1.9-3.1,4.4-3.1,7.5v25.3
				H74.9v-43.6h10.1l-0.1,3.6c3.5-3.6,7.7-5.4,12.8-5.4c3.3,0,6.3,0.6,9,1.9c2.7,1.3,4.9,3,6.8,5.2c1.9,2.2,3.3,4.7,4.3,7.6
				C118.9,146.6,119.4,149.6,119.4,152.8z"/>
			<path class="st0" d="M172.6,175.4c0,3.2-0.6,6.1-1.7,8.7c-1.1,2.7-2.7,5-4.7,6.9c-2,1.9-4.4,3.5-7.1,4.6
				c-2.7,1.1-5.6,1.7-8.7,1.7c-4.8,0-8.9-1.3-12.5-3.9c-3.6-2.6-6.2-6.1-7.8-10.5l8.6-3.7c0.8,2.7,2.3,4.8,4.4,6.3
				c2.2,1.5,4.6,2.3,7.3,2.3c3.7,0,6.6-1.2,8.9-3.5c2.3-2.3,3.4-5.3,3.4-9v-4.9c-1.5,1.7-3.2,3.1-5.1,4c-1.9,1-4,1.5-6.3,1.5
				c-3.3,0-6.4-0.6-9.2-1.8c-2.8-1.2-5.3-2.9-7.4-5c-2.1-2.1-3.7-4.6-4.9-7.5c-1.2-2.9-1.8-5.9-1.8-9.2c0-3.2,0.6-6.3,1.8-9.2
				c1.2-2.9,2.8-5.4,4.9-7.6c2.1-2.2,4.5-3.8,7.3-5.1c2.8-1.2,5.9-1.8,9.2-1.8c2.4,0,4.6,0.5,6.3,1.5c1.8,1,3.5,2.4,5.1,4.1v-4.1
				h9.7V175.4z M151.8,166.7c1.9,0,3.7-0.4,5.2-1.2c1.5-0.8,2.8-1.9,3.8-3.2c1-1.3,1.8-2.8,2.3-4.5c0.5-1.7,0.8-3.4,0.8-5.2
				c0-1.8-0.3-3.6-0.8-5.3c-0.5-1.7-1.3-3.3-2.3-4.6c-1-1.3-2.3-2.4-3.8-3.2c-1.5-0.8-3.2-1.2-5.2-1.2c-2.1,0-4,0.4-5.6,1.2
				c-1.7,0.8-3.1,1.9-4.2,3.2c-1.2,1.3-2.1,2.9-2.7,4.7c-0.6,1.8-1,3.7-1,5.6c0,1.9,0.3,3.6,1,5.3c0.7,1.7,1.6,3.1,2.9,4.3
				c1.2,1.2,2.6,2.2,4.3,2.9C148.2,166.3,149.9,166.7,151.8,166.7z"/>
			<path class="st0" d="M192.7,158.3c1.2,2.7,2.7,4.7,4.4,5.8c1.7,1.2,4.1,1.7,7.1,1.7c2.7,0,4.9-0.6,6.6-1.7
				c1.7-1.1,3.2-2.8,4.4-5.1l8,5.3c-2.2,3.2-4.9,5.7-8.3,7.4c-3.3,1.7-7,2.6-10.9,2.6c-3.2,0-6.2-0.6-9-1.8c-2.8-1.2-5.3-2.9-7.4-5
				c-2.1-2.1-3.8-4.5-5-7.3c-1.2-2.8-1.8-5.8-1.8-9c0-3.2,0.6-6.2,1.9-9c1.3-2.8,3-5.3,5.1-7.3c2.1-2.1,4.6-3.7,7.4-5
				c2.8-1.2,5.8-1.8,9-1.8c2.4,0,4.8,0.5,6.9,1.4c2.2,0.9,4.1,2.2,5.8,3.7c1.7,1.5,3.2,3.4,4.4,5.5c1.2,2.1,2.1,4.3,2.6,6.6
				L192.7,158.3z M212.3,141.8c-1-1.5-2.2-2.7-3.5-3.6c-1.3-0.9-2.9-1.3-4.8-1.3c-1.9,0-3.6,0.4-5.2,1.1c-1.6,0.8-2.9,1.8-4,3
				c-1.1,1.3-2,2.7-2.7,4.4c-0.7,1.7-1.1,3.4-1.1,5.2L212.3,141.8z"/>
			<path class="st0" d="M277.2,152.8c0,3.7,0,7.3-0.1,10.8c0,3.5-0.1,7.1-0.1,10.8h-10.4v-21.7c0-1.9-0.3-3.7-1-5.3
				c-0.6-1.7-1.6-3.2-2.7-4.4c-1.2-1.3-2.6-2.3-4.1-3c-1.6-0.8-3.3-1.1-5.3-1.1c-3,0-5.6,1-7.6,2.9c-2.1,1.9-3.1,4.4-3.1,7.5v25.3
				h-10.1v-43.6h10.1l-0.1,3.6c3.5-3.6,7.7-5.4,12.8-5.4c3.3,0,6.3,0.6,9,1.9c2.7,1.3,4.9,3,6.8,5.2c1.9,2.2,3.3,4.7,4.3,7.6
				C276.7,146.6,277.2,149.6,277.2,152.8z"/>
			<path class="st0" d="M292,115.4c2.1,0,3.6,0.5,4.5,1.3c0.9,0.9,1.3,2.4,1.3,4.5c0,2.1-0.5,3.6-1.3,4.5c-0.9,0.9-2.4,1.3-4.5,1.3
				c-2.1,0-3.6-0.4-4.5-1.3c-0.9-0.9-1.3-2.4-1.3-4.5c0-2.1,0.4-3.6,1.3-4.5C288.4,115.9,289.9,115.4,292,115.4z M297.1,130.3v44
				H287v-44H297.1z"/>
			<path class="st0" d="M318.6,158.3c1.2,2.7,2.7,4.7,4.4,5.8c1.7,1.2,4.1,1.7,7.1,1.7c2.7,0,4.9-0.6,6.6-1.7
				c1.7-1.1,3.2-2.8,4.4-5.1l8,5.3c-2.2,3.2-4.9,5.7-8.3,7.4c-3.3,1.7-7,2.6-10.8,2.6c-3.2,0-6.2-0.6-9-1.8c-2.8-1.2-5.3-2.9-7.4-5
				c-2.1-2.1-3.8-4.5-5-7.3c-1.2-2.8-1.8-5.8-1.8-9c0-3.2,0.6-6.2,1.9-9c1.3-2.8,3-5.3,5.1-7.3c2.1-2.1,4.6-3.7,7.4-5
				c2.8-1.2,5.8-1.8,9-1.8c2.4,0,4.7,0.5,6.9,1.4c2.2,0.9,4.1,2.2,5.8,3.7c1.7,1.5,3.2,3.4,4.4,5.5c1.2,2.1,2.1,4.3,2.6,6.6
				L318.6,158.3z M338.2,141.8c-1-1.5-2.2-2.7-3.5-3.6c-1.3-0.9-2.9-1.3-4.7-1.3c-1.9,0-3.6,0.4-5.2,1.1c-1.6,0.8-2.9,1.8-4,3
				c-1.1,1.3-2,2.7-2.7,4.4c-0.7,1.7-1.1,3.4-1.1,5.2L338.2,141.8z"/>
			<path class="st0" d="M368.8,135.5c2.5-1.7,5.3-3,8.3-3.7c3-0.8,6-1.1,9-1.1v9.8c-2.1,0-4.2,0.3-6.2,0.9c-2.1,0.6-3.9,1.4-5.5,2.5
				c-1.6,1.1-2.9,2.5-3.9,4.3c-1,1.7-1.5,3.8-1.5,6.2v20l-0.1,0.1c-1.7,0-3.3,0-4.9-0.1c-1.6,0-3.2-0.1-4.9-0.1v-43.4h9.8
				L368.8,135.5z"/>
			<path class="st0" d="M418,127.2c3.2,0,6.3,0.6,9.1,1.8c2.8,1.2,5.4,2.9,7.5,5.1c2.2,2.2,3.9,4.7,5.1,7.5c1.2,2.8,1.8,5.9,1.8,9.1
				c0,3.2-0.6,6.3-1.8,9.2c-1.2,2.9-2.9,5.4-5.1,7.5c-2.2,2.1-4.7,3.8-7.5,5.1c-2.8,1.3-5.9,1.9-9.1,1.9c-3.2,0-6.3-0.6-9.2-1.8
				c-2.9-1.2-5.4-2.9-7.6-5.1c-2.2-2.2-3.9-4.7-5.1-7.6c-1.2-2.9-1.8-5.9-1.8-9.2c0-3.2,0.6-6.3,1.9-9.1c1.3-2.8,3-5.3,5.1-7.5
				c2.1-2.2,4.6-3.8,7.5-5.1C411.6,127.8,414.7,127.2,418,127.2z M431.4,150.7c0-1.8-0.4-3.5-1.1-5.2c-0.7-1.7-1.7-3.1-2.9-4.3
				c-1.2-1.2-2.7-2.2-4.3-2.9c-1.6-0.7-3.4-1.1-5.2-1.1c-1.9,0-3.6,0.4-5.2,1.1c-1.6,0.7-3,1.7-4.3,2.9c-1.3,1.2-2.2,2.7-3,4.3
				c-0.7,1.7-1.1,3.4-1.1,5.2c0,1.9,0.4,3.6,1.1,5.3c0.7,1.7,1.7,3.1,2.9,4.3c1.2,1.2,2.7,2.2,4.3,2.9c1.6,0.7,3.4,1.1,5.3,1.1
				c1.8,0,3.5-0.4,5.2-1.1c1.6-0.7,3.1-1.7,4.3-3c1.2-1.3,2.2-2.7,2.9-4.3C431,154.3,431.4,152.6,431.4,150.7z"/>
			<path class="st0" d="M465.4,138c-3,0-4.5,1.5-4.5,4.4c0,0.8,0.5,1.5,1.5,2.2c1,0.6,2.3,1.3,3.8,2c1.5,0.7,3.2,1.4,5,2.2
				c1.8,0.8,3.5,1.7,5,2.8c1.5,1.1,2.8,2.4,3.8,3.8c1,1.5,1.5,3.3,1.5,5.3c0,2.4-0.5,4.5-1.4,6.3c-0.9,1.7-2.2,3.1-3.8,4.2
				c-1.6,1.1-3.4,1.9-5.4,2.4c-2,0.5-4.1,0.8-6.3,0.8c-2.7,0-5.4-0.5-8-1.6c-2.6-1.1-5-2.5-7.2-4.2l4.7-8.1c1.4,1.4,3.3,2.5,5.7,3.5
				c2.3,0.9,4.5,1.4,6.5,1.4c1.1,0,2.1-0.2,3-0.7c0.9-0.5,1.4-1.3,1.4-2.6c0-1.2-0.5-2.1-1.5-3c-1-0.8-2.3-1.6-3.8-2.4
				c-1.5-0.8-3.1-1.5-4.9-2.3c-1.8-0.8-3.4-1.7-4.9-2.8c-1.5-1-2.8-2.3-3.8-3.8c-1-1.5-1.5-3.3-1.5-5.3c0-2.1,0.4-3.9,1.3-5.6
				c0.9-1.6,2.1-3,3.6-4c1.5-1.1,3.1-1.9,5-2.5c1.9-0.6,3.7-0.9,5.6-0.9c3.2,0,6,0.5,8.2,1.6c2.2,1.1,4.4,2.7,6.7,4.8l-5.1,6.7
				c-1.3-1.2-2.9-2.3-4.7-3.2C469.1,138.4,467.3,138,465.4,138z"/>
		</g>
		<circle class="st0" cx="307.7" cy="10" r="7.4"/>
		<g>
			<polygon class="st0" points="274.2,51.6 274.2,24.9 244.7,51.6 			"/>
			<path class="st0" d="M274,7.5c-1.1-0.1-2.2-0.1-3.3-0.1c-22.2,0-40.2,18-40.2,40.2c0,0.2,0,0.3,0,0.5L274,7.5z"/>
			<path class="st0" d="M289.7,51.6h20.9c0.1-1.3,0.2-2.6,0.2-3.9c0-15.3-8.5-28.6-21.1-35.4V51.6z"/>
			<path class="st0" d="M233.5,63.1c6.1,14.5,20.4,24.7,37.1,24.7c1.2,0,2.4-0.1,3.5-0.2V63.1H233.5z"/>
			<path class="st0" d="M289.7,63.1V83c8.1-4.4,14.5-11.4,18-19.9H289.7z"/>
		</g>
	</g>
</g>
</svg>
