<?xml version="1.0" encoding="utf-8"?>
<!-- Generator: Adobe Illustrator 23.0.5, SVG Export Plug-In . SVG Version: 6.00 Build 0)  -->
<svg version="1.1" id="Capa_1" xmlns="http://www.w3.org/2000/svg" xmlns:xlink="http://www.w3.org/1999/xlink" x="0px" y="0px"
	 viewBox="0 0 426.2 200" style="enable-background:new 0 0 426.2 200;" xml:space="preserve">
<style type="text/css">
	.st0{fill:#FFFFFF;}
</style>
<g>
	<g>
		<g>
			<path class="st0" d="M10.1,12.1V85H0V12.1H10.1z"/>
			<path class="st0" d="M41.3,21.4c-1.3,0-2.5,0.2-3.7,0.6s-2.2,1-3,1.8c-0.9,0.8-1.6,1.7-2.1,2.8c-0.5,1.2-0.8,2.4-0.8,3.7
				c0,2.2,0.7,4,2.2,5.6s3.3,3,5.6,4.4c2.3,1.4,4.7,2.7,7.3,4.1c2.6,1.4,5,2.9,7.3,4.7s4.1,3.8,5.6,6.1s2.2,5.1,2.2,8.3
				c0,3.5-0.6,6.5-1.7,9.2c-1.2,2.7-2.8,4.9-4.8,6.7c-2.1,1.8-4.5,3.1-7.3,4.1s-5.9,1.4-9.2,1.4c-4.1,0-8.1-0.9-11.9-2.6
				c-3.9-1.8-6.9-4.5-9-8.2c1.4-0.9,2.7-1.9,4-2.9s2.6-2,3.9-3c0.6,1.2,1.3,2.3,2.3,3.1c1,0.9,2.1,1.6,3.3,2.1
				c1.2,0.5,2.5,0.9,3.8,1.2c1.3,0.3,2.6,0.4,3.9,0.4c3.2,0,6-0.8,8.2-2.5s3.3-4.3,3.3-7.7c0-2.2-0.8-4.2-2.3-5.8
				c-1.5-1.7-3.4-3.2-5.6-4.6c-2.2-1.4-4.7-2.9-7.3-4.3c-2.7-1.4-5.1-3-7.3-4.8c-2.2-1.8-4.1-3.8-5.6-6c-1.5-2.3-2.3-5-2.3-8.2
				c0-3.1,0.6-5.8,1.7-8.2s2.6-4.4,4.5-6s4.2-2.8,6.7-3.6c2.6-0.8,5.4-1.2,8.3-1.2c3.2,0,6.5,0.7,9.9,2c3.4,1.4,6.2,3.3,8.3,5.8
				c-1,1.3-2.1,2.5-3.2,3.8c-1.2,1.2-2.3,2.4-3.3,3.7c-1.4-1.7-3.2-3.1-5.3-4.2C45.8,21.9,43.6,21.4,41.3,21.4z"/>
			<path class="st0" d="M105.3,12.1c5,0,9.8,1,14.2,2.9s8.3,4.5,11.6,7.8s5.9,7.2,7.8,11.6c1.9,4.4,2.9,9.2,2.9,14.2
				s-1,9.8-2.9,14.2s-4.5,8.3-7.8,11.6c-3.3,3.3-7.2,5.9-11.6,7.8c-4.4,1.9-9.2,2.9-14.2,2.9s-9.8-1-14.2-2.9s-8.3-4.5-11.6-7.8
				s-5.9-7.1-7.8-11.6c-1.9-4.4-2.9-9.2-2.9-14.2s1-9.8,2.9-14.2s4.5-8.3,7.8-11.6s7.2-5.9,11.6-7.8
				C95.6,13.1,100.3,12.1,105.3,12.1z M131.7,48.6c0-3.7-0.7-7.1-2.1-10.3c-1.4-3.2-3.2-6-5.6-8.4s-5.2-4.3-8.4-5.7
				c-3.2-1.4-6.6-2.1-10.3-2.1s-7.1,0.7-10.3,2.1s-6,3.3-8.4,5.7s-4.2,5.2-5.6,8.4c-1.4,3.2-2.1,6.6-2.1,10.3s0.7,7.1,2.1,10.3
				c1.4,3.2,3.2,6,5.6,8.4c2.4,2.4,5.2,4.2,8.4,5.6s6.6,2.1,10.3,2.1s7.1-0.7,10.3-2.1s6-3.2,8.4-5.6s4.2-5.2,5.6-8.4
				S131.7,52.3,131.7,48.6z"/>
		</g>
		<g>
			<path class="st0" d="M10.1,101.5v72.9H0v-72.9C0,101.5,10.1,101.5,10.1,101.5z"/>
			<path class="st0" d="M64.1,152.8c0,3.7,0,7.3-0.1,10.8c0,3.5-0.1,7.1-0.1,10.8H53.5v-21.7c0-1.9-0.3-3.7-1-5.3
				c-0.6-1.7-1.6-3.2-2.7-4.4c-1.2-1.3-2.6-2.3-4.1-3c-1.6-0.8-3.3-1.1-5.3-1.1c-3,0-5.6,1-7.6,2.9c-2.1,1.9-3.1,4.4-3.1,7.5v25.3
				H19.6V131h10.1l-0.1,3.6c3.5-3.6,7.7-5.4,12.8-5.4c3.3,0,6.3,0.6,9,1.9c2.7,1.3,4.9,3,6.8,5.2s3.3,4.7,4.3,7.6
				C63.6,146.6,64.1,149.6,64.1,152.8z"/>
			<path class="st0" d="M117.3,175.4c0,3.2-0.6,6.1-1.7,8.7c-1.1,2.7-2.7,5-4.7,6.9s-4.4,3.5-7.1,4.6c-2.7,1.1-5.6,1.7-8.7,1.7
				c-4.8,0-8.9-1.3-12.5-3.9c-3.6-2.6-6.2-6.1-7.8-10.5l8.6-3.7c0.8,2.7,2.3,4.8,4.4,6.3c2.2,1.5,4.6,2.3,7.3,2.3
				c3.7,0,6.6-1.2,8.9-3.5c2.3-2.3,3.4-5.3,3.4-9v-4.9c-1.5,1.7-3.2,3.1-5.1,4c-1.9,1-4,1.5-6.3,1.5c-3.3,0-6.4-0.6-9.2-1.8
				s-5.3-2.9-7.4-5c-2.1-2.1-3.7-4.6-4.9-7.5s-1.8-5.9-1.8-9.2c0-3.2,0.6-6.3,1.8-9.2s2.8-5.4,4.9-7.6c2.1-2.2,4.5-3.8,7.3-5.1
				c2.8-1.2,5.9-1.8,9.2-1.8c2.4,0,4.6,0.5,6.3,1.5c1.8,1,3.5,2.4,5.1,4.1v-4.1h9.7v45.2H117.3z M96.5,166.7c1.9,0,3.7-0.4,5.2-1.2
				s2.8-1.9,3.8-3.2s1.8-2.8,2.3-4.5s0.8-3.4,0.8-5.2s-0.3-3.6-0.8-5.3s-1.3-3.3-2.3-4.6s-2.3-2.4-3.8-3.2s-3.2-1.2-5.2-1.2
				c-2.1,0-4,0.4-5.6,1.2c-1.7,0.8-3.1,1.9-4.2,3.2c-1.2,1.3-2.1,2.9-2.7,4.7c-0.6,1.8-1,3.7-1,5.6c0,1.9,0.3,3.6,1,5.3
				s1.6,3.1,2.9,4.3c1.2,1.2,2.6,2.2,4.3,2.9C92.9,166.3,94.6,166.7,96.5,166.7z"/>
			<path class="st0" d="M137.4,158.3c1.2,2.7,2.7,4.7,4.4,5.8c1.7,1.2,4.1,1.7,7.1,1.7c2.7,0,4.9-0.6,6.6-1.7
				c1.7-1.1,3.2-2.8,4.4-5.1l8,5.3c-2.2,3.2-4.9,5.7-8.3,7.4c-3.3,1.7-7,2.6-10.9,2.6c-3.2,0-6.2-0.6-9-1.8s-5.3-2.9-7.4-5
				c-2.1-2.1-3.8-4.5-5-7.3s-1.8-5.8-1.8-9s0.6-6.2,1.9-9c1.3-2.8,3-5.3,5.1-7.3c2.1-2.1,4.6-3.7,7.4-5c2.8-1.2,5.8-1.8,9-1.8
				c2.4,0,4.8,0.5,6.9,1.4c2.2,0.9,4.1,2.2,5.8,3.7s3.2,3.4,4.4,5.5s2.1,4.3,2.6,6.6L137.4,158.3z M157,141.8
				c-1-1.5-2.2-2.7-3.5-3.6c-1.3-0.9-2.9-1.3-4.8-1.3c-1.9,0-3.6,0.4-5.2,1.1c-1.6,0.8-2.9,1.8-4,3c-1.1,1.3-2,2.7-2.7,4.4
				s-1.1,3.4-1.1,5.2L157,141.8z"/>
			<path class="st0" d="M221.9,152.8c0,3.7,0,7.3-0.1,10.8c0,3.5-0.1,7.1-0.1,10.8h-10.4v-21.7c0-1.9-0.3-3.7-1-5.3
				c-0.6-1.7-1.6-3.2-2.7-4.4c-1.2-1.3-2.6-2.3-4.1-3c-1.6-0.8-3.3-1.1-5.3-1.1c-3,0-5.6,1-7.6,2.9c-2.1,1.9-3.1,4.4-3.1,7.5v25.3
				h-10.1V131h10.1l-0.1,3.6c3.5-3.6,7.7-5.4,12.8-5.4c3.3,0,6.3,0.6,9,1.9c2.7,1.3,4.9,3,6.8,5.2s3.3,4.7,4.3,7.6
				C221.4,146.6,221.9,149.6,221.9,152.8z"/>
			<path class="st0" d="M236.7,115.4c2.1,0,3.6,0.5,4.5,1.3c0.9,0.9,1.3,2.4,1.3,4.5s-0.5,3.6-1.3,4.5c-0.9,0.9-2.4,1.3-4.5,1.3
				s-3.6-0.4-4.5-1.3s-1.3-2.4-1.3-4.5s0.4-3.6,1.3-4.5C233.1,115.9,234.6,115.4,236.7,115.4z M241.8,130.3v44h-10.1v-44H241.8z"/>
			<path class="st0" d="M263.3,158.3c1.2,2.7,2.7,4.7,4.4,5.8c1.7,1.2,4.1,1.7,7.1,1.7c2.7,0,4.9-0.6,6.6-1.7
				c1.7-1.1,3.2-2.8,4.4-5.1l8,5.3c-2.2,3.2-4.9,5.7-8.3,7.4c-3.3,1.7-7,2.6-10.8,2.6c-3.2,0-6.2-0.6-9-1.8s-5.3-2.9-7.4-5
				s-3.8-4.5-5-7.3s-1.8-5.8-1.8-9s0.6-6.2,1.9-9s3-5.3,5.1-7.3c2.1-2.1,4.6-3.7,7.4-5c2.8-1.2,5.8-1.8,9-1.8c2.4,0,4.7,0.5,6.9,1.4
				c2.2,0.9,4.1,2.2,5.8,3.7c1.7,1.5,3.2,3.4,4.4,5.5c1.2,2.1,2.1,4.3,2.6,6.6L263.3,158.3z M282.9,141.8c-1-1.5-2.2-2.7-3.5-3.6
				c-1.3-0.9-2.9-1.3-4.7-1.3c-1.9,0-3.6,0.4-5.2,1.1c-1.6,0.8-2.9,1.8-4,3c-1.1,1.3-2,2.7-2.7,4.4s-1.1,3.4-1.1,5.2L282.9,141.8z"
				/>
			<path class="st0" d="M313.5,135.5c2.5-1.7,5.3-3,8.3-3.7c3-0.8,6-1.1,9-1.1v9.8c-2.1,0-4.2,0.3-6.2,0.9c-2.1,0.6-3.9,1.4-5.5,2.5
				s-2.9,2.5-3.9,4.3c-1,1.7-1.5,3.8-1.5,6.2v20l-0.1,0.1c-1.7,0-3.3,0-4.9-0.1c-1.6,0-3.2-0.1-4.9-0.1v-43.4h9.8L313.5,135.5z"/>
			<path class="st0" d="M362.7,127.2c3.2,0,6.3,0.6,9.1,1.8c2.8,1.2,5.4,2.9,7.5,5.1c2.2,2.2,3.9,4.7,5.1,7.5s1.8,5.9,1.8,9.1
				c0,3.2-0.6,6.3-1.8,9.2c-1.2,2.9-2.9,5.4-5.1,7.5s-4.7,3.8-7.5,5.1s-5.9,1.9-9.1,1.9s-6.3-0.6-9.2-1.8c-2.9-1.2-5.4-2.9-7.6-5.1
				c-2.2-2.2-3.9-4.7-5.1-7.6c-1.2-2.9-1.8-5.9-1.8-9.2c0-3.2,0.6-6.3,1.9-9.1s3-5.3,5.1-7.5s4.6-3.8,7.5-5.1
				C356.3,127.8,359.4,127.2,362.7,127.2z M376.1,150.7c0-1.8-0.4-3.5-1.1-5.2s-1.7-3.1-2.9-4.3c-1.2-1.2-2.7-2.2-4.3-2.9
				c-1.6-0.7-3.4-1.1-5.2-1.1c-1.9,0-3.6,0.4-5.2,1.1c-1.6,0.7-3,1.7-4.3,2.9s-2.2,2.7-3,4.3c-0.7,1.7-1.1,3.4-1.1,5.2
				c0,1.9,0.4,3.6,1.1,5.3s1.7,3.1,2.9,4.3c1.2,1.2,2.7,2.2,4.3,2.9c1.6,0.7,3.4,1.1,5.3,1.1c1.8,0,3.5-0.4,5.2-1.1
				c1.6-0.7,3.1-1.7,4.3-3c1.2-1.3,2.2-2.7,2.9-4.3C375.7,154.3,376.1,152.6,376.1,150.7z"/>
			<path class="st0" d="M410.1,138c-3,0-4.5,1.5-4.5,4.4c0,0.8,0.5,1.5,1.5,2.2c1,0.6,2.3,1.3,3.8,2s3.2,1.4,5,2.2s3.5,1.7,5,2.8
				s2.8,2.4,3.8,3.8c1,1.5,1.5,3.3,1.5,5.3c0,2.4-0.5,4.5-1.4,6.3c-0.9,1.7-2.2,3.1-3.8,4.2c-1.6,1.1-3.4,1.9-5.4,2.4
				s-4.1,0.8-6.3,0.8c-2.7,0-5.4-0.5-8-1.6s-5-2.5-7.2-4.2l4.7-8.1c1.4,1.4,3.3,2.5,5.7,3.5c2.3,0.9,4.5,1.4,6.5,1.4
				c1.1,0,2.1-0.2,3-0.7s1.4-1.3,1.4-2.6c0-1.2-0.5-2.1-1.5-3c-1-0.8-2.3-1.6-3.8-2.4c-1.5-0.8-3.1-1.5-4.9-2.3s-3.4-1.7-4.9-2.8
				c-1.5-1-2.8-2.3-3.8-3.8s-1.5-3.3-1.5-5.3c0-2.1,0.4-3.9,1.3-5.6c0.9-1.6,2.1-3,3.6-4c1.5-1.1,3.1-1.9,5-2.5s3.7-0.9,5.6-0.9
				c3.2,0,6,0.5,8.2,1.6s4.4,2.7,6.7,4.8l-5.1,6.7c-1.3-1.2-2.9-2.3-4.7-3.2C413.8,138.4,412,138,410.1,138z"/>
		</g>
		<circle class="st0" cx="252.4" cy="10" r="7.4"/>
		<g>
			<polygon class="st0" points="218.9,51.6 218.9,24.9 189.4,51.6 			"/>
			<path class="st0" d="M218.7,7.5c-1.1-0.1-2.2-0.1-3.3-0.1c-22.2,0-40.2,18-40.2,40.2c0,0.2,0,0.3,0,0.5L218.7,7.5z"/>
			<path class="st0" d="M234.4,51.6h20.9c0.1-1.3,0.2-2.6,0.2-3.9c0-15.3-8.5-28.6-21.1-35.4V51.6z"/>
			<path class="st0" d="M178.2,63.1c6.1,14.5,20.4,24.7,37.1,24.7c1.2,0,2.4-0.1,3.5-0.2V63.1H178.2z"/>
			<path class="st0" d="M234.4,63.1V83c8.1-4.4,14.5-11.4,18-19.9H234.4z"/>
		</g>
	</g>
</g>
</svg>
